<?xml version="1.0" ?><svg height="24px" version="1.1" viewBox="0 0 24 24" width="24px" xmlns="http://www.w3.org/2000/svg" xmlns:sketch="http://www.bohemiancoding.com/sketch/ns" xmlns:xlink="http://www.w3.org/1999/xlink"><title/><desc/><defs/><g fill="none" fill-rule="evenodd" id="miu" stroke="none" stroke-width="1"><g id="Artboard-1" transform="translate(-503.000000, -479.000000)"><g id="slice" transform="translate(215.000000, 119.000000)"/><path d="M518,501 L518,492 L512,492 L512,501 L507,501 L507,489.399994 L506,490.200012 L506,502 L524,502 L524,490.200012 L523,489.399994 L523.007446,501 L518,501 Z M513,501 L517,501 L517,493 L513,493 L513,501 Z M515,481.657565 L525.574023,490.203222 L526.203222,489.425977 L515,480.356702 L503.796778,489.425977 L504.425977,490.203222 L515,481.657565 Z M525,482 L522,482 L522,484.736773 L523,485.546297 L523,483 L524,483 L524,486.355821 L525,487.165344 L525,482 Z" fill="#656565" id="house-home-real_estate-property-outline-stroke"/></g></g></svg>